<svg width="135" height="35" viewBox="0 0 135 35" fill="none" xmlns="http://www.w3.org/2000/svg">
<path d="M64.0831 24.7181L64.0828 24.7184C62.6103 26.2053 60.8106 26.9341 58.6783 26.9341C56.546 26.9341 54.7463 26.2053 53.2738 24.7184L53.2735 24.7181C51.8008 23.2455 51.0719 21.4457 51.0719 19.3133C51.0719 17.1955 51.8008 15.3956 53.2735 13.923C54.7464 12.45 56.5464 11.7069 58.6783 11.7069C60.8102 11.7069 62.6102 12.45 64.0831 13.923C65.5561 15.3959 66.2991 17.1959 66.2991 19.3133C66.2991 21.4453 65.556 23.2452 64.0831 24.7181ZM66.5255 11.6962L66.4734 11.7493L66.5255 11.6962C64.4138 9.62821 61.7915 8.57996 58.6783 8.57996C55.5651 8.57996 52.9428 9.62821 50.8311 11.6962L50.8311 11.6962C48.705 13.7786 47.6559 16.3145 47.6559 19.3133C47.6559 22.3118 48.7048 24.8623 50.8311 26.9305C52.943 29.0131 55.5655 30.0467 58.6783 30.0467C61.7911 30.0467 64.4135 29.0131 66.5254 26.9305C68.6517 24.8624 69.7007 22.3119 69.7007 19.3133C69.7007 16.3145 68.6515 13.7786 66.5255 11.6962ZM80.3067 15.3869H80.2475L80.2288 15.4431L77.0548 24.9791L73.8667 15.443L73.848 15.3869H73.7888H70.6816H70.5665L70.6039 15.4958L75.4888 29.7022L75.5078 29.7576H75.5664H78.3846H78.4432L78.4623 29.7022L81.6363 20.4622L84.8104 29.7022L84.8294 29.7576H84.8881H87.7062H87.7648L87.7839 29.7022L92.6687 15.4958L92.7062 15.3869H92.591H89.4838H89.4247L89.4059 15.443L86.2178 24.9791L83.0439 15.4431L83.0252 15.3869H82.9659H80.3067ZM97.1036 15.4699L97.1044 15.3869H97.0215H94.0588H93.9766V15.4691V29.6755V29.7576H94.0588H97.0215H97.1036V29.6755V21.987C97.1036 20.6997 97.4324 19.6961 98.0791 18.9932C98.7263 18.2897 99.6137 17.9213 100.721 17.9213C101.653 17.9213 102.441 18.2591 103.076 18.908C103.71 19.5707 104.035 20.4024 104.035 21.4089V29.6899V29.7721H104.117H107.08H107.162V29.6899V21.4089C107.162 19.485 106.623 17.9601 105.536 16.8144C104.449 15.669 103.039 15.0979 101.299 15.0979C100.801 15.0979 100.317 15.1565 99.8186 15.2885C99.3232 15.4196 98.9275 15.5659 98.6034 15.728C98.2817 15.8888 97.9892 16.0643 97.697 16.2689L97.6954 16.27C97.4226 16.471 97.2289 16.6196 97.1368 16.7117L97.0911 16.7574L97.1036 15.4699ZM123.506 23.6877H123.58L123.588 23.6144L123.746 22.1403L123.747 22.1403V22.1315C123.747 20.1166 123.074 18.4477 121.729 17.1019C120.383 15.756 118.714 15.0834 116.699 15.0834C114.682 15.0834 112.956 15.8151 111.525 17.2464C110.093 18.6777 109.362 20.4038 109.362 22.4205C109.362 24.5234 110.107 26.3217 111.582 27.8112C113.057 29.3003 114.812 30.0467 116.843 30.0467C117.602 30.0467 118.348 29.9445 119.064 29.7251C119.775 29.5076 120.36 29.2741 120.802 29.0092C121.253 28.7471 121.676 28.4555 122.07 28.1198C122.473 27.7892 122.74 27.5525 122.862 27.4C122.891 27.3632 122.919 27.3286 122.946 27.2961C123.02 27.2045 123.082 27.1288 123.126 27.0619L123.164 27.0058L123.116 26.9582L121.194 25.0361L121.129 24.9718L121.072 25.0422L120.624 25.5914L120.624 25.592C120.345 25.9397 119.852 26.2946 119.132 26.6688C118.422 27.0384 117.669 27.2232 116.843 27.2232C115.721 27.2232 114.758 26.8687 113.935 26.1453L113.934 26.1448C113.136 25.4568 112.66 24.6384 112.489 23.6877H123.506ZM133.989 18.064L134.088 18.0853V17.9837V15.1656V15.0834H134.006H133.269C132.77 15.0834 132.271 15.1569 131.774 15.2885C131.279 15.4196 130.883 15.5659 130.559 15.728C130.237 15.8888 129.945 16.0643 129.652 16.2689L129.651 16.27C129.589 16.3157 129.531 16.3582 129.477 16.3973C129.413 16.444 129.355 16.486 129.305 16.5232C129.214 16.5916 129.14 16.649 129.092 16.6972L129.045 16.7448V15.4691V15.3869H128.962H126H125.918V15.4691V29.6755V29.7576H126H128.962H129.045V29.6755V21.987C129.045 20.7006 129.387 19.6966 130.034 18.9932C130.682 18.2895 131.555 17.9213 132.662 17.9213C133.147 17.9213 133.589 17.9784 133.989 18.064ZM116.684 17.7768C117.766 17.7768 118.641 18.0892 119.347 18.7102C120.032 19.3127 120.465 20.0734 120.647 21.0088H112.63C112.892 20.0737 113.366 19.3127 114.051 18.7102C114.757 18.089 115.633 17.7768 116.684 17.7768Z" fill="#233043" stroke="#233043" stroke-width="0.164296"/>
<path fill-rule="evenodd" clip-rule="evenodd" d="M0.284946 8.17456V12.0982C0.284946 14.7931 2.46962 16.9777 5.16445 16.9777C7.27919 16.9777 9.07972 15.6325 9.75693 13.751C10.4341 15.6325 12.2347 16.9777 14.3494 16.9777C16.4641 16.9777 18.2647 15.6325 18.9419 13.751C19.6191 15.6325 21.4196 16.9777 23.5344 16.9777C25.6491 16.9777 27.4496 15.6325 28.1268 13.751C28.804 15.6325 30.6046 16.9777 32.7193 16.9777C35.4141 16.9777 37.5988 14.7931 37.5988 12.0982V8.16848L36.4646 6.64462H1.42867L0.284946 8.17456Z" fill="#1877F2"/>
<path d="M14.3475 21.4552H23.5524V33.3636H14.3475V21.4552Z" fill="#006CFF"/>
<path fill-rule="evenodd" clip-rule="evenodd" d="M3.31866 7.22607H34.5572V34.7985H3.31866V7.22607ZM6.18895 10.0964V31.9282H31.6869V10.0964H6.18895Z" fill="#1877F2"/>
<path d="M6.52445 2.22275L1.22256 9.28749H36.6897L31.3879 2.22275H6.52445Z" fill="white"/>
<path fill-rule="evenodd" clip-rule="evenodd" d="M5.80715 0.787598H32.1053L37.5988 8.16848V10.7226H0.28509L0.284946 8.17456L5.80715 0.787598ZM7.24176 3.65789L4.09394 7.85234H33.8184L30.6706 3.65789H7.24176Z" fill="#1877F2"/>
</svg>
